<svg id="Layer_1" data-name="Layer 1" xmlns="http://www.w3.org/2000/svg" viewBox="0 0 181.09 61"><defs><style>.cls-1{fill:#666;}.cls-2{fill:#fff;}</style></defs><path class="cls-1" d="M648.92,400.62a7.82,7.82,0,0,1-3.71.94,7.86,7.86,0,0,1,0-15.71,7.82,7.82,0,0,1,3.71.94v2.95a5.69,5.69,0,0,0-3.71-1.34,5.31,5.31,0,0,0,0,10.61,5.72,5.72,0,0,0,3.71-1.32Z" transform="translate(-592.58 -355.13)"/><path class="cls-1" d="M664.13,394.87h-7.81v6.45h-2.55V386.09h2.55v6.34h7.81v-6.34h2.56v15.23h-2.56Z" transform="translate(-592.58 -355.13)"/><path class="cls-1" d="M680.33,397.56h-5.79l-1.37,3.76h-2.84L676,386.09h2.85l5.68,15.23H681.7Zm-5-2.44h4.14l-2.06-5.69Z" transform="translate(-592.58 -355.13)"/><path class="cls-1" d="M688.19,386.09h4.88c2.88,0,4.9,1.62,4.9,4.35a3.81,3.81,0,0,1-3,3.89c1.88.92,3.23,3.54,3.67,7H696c-.6-3.56-2.21-6-4.14-6h-1.16v6h-2.55Zm4.85,2.44h-2.3v4.32H693a2.07,2.07,0,0,0,2.29-2.14A2.1,2.1,0,0,0,693,388.53Z" transform="translate(-592.58 -355.13)"/><path class="cls-1" d="M703.08,386.09h2.55v15.23h-2.55Z" transform="translate(-592.58 -355.13)"/><path class="cls-1" d="M713.25,388.53h-3.88v-2.44h10.3v2.44H715.8v12.79h-2.55Z" transform="translate(-592.58 -355.13)"/><path class="cls-1" d="M730.53,397.56h-5.8l-1.36,3.76h-2.84l5.68-15.23h2.84l5.69,15.23H731.9Zm-5-2.44h4.14l-2.06-5.69Z" transform="translate(-592.58 -355.13)"/><path class="cls-1" d="M738.38,386.09h4.88c2.69,0,4.66,1.57,4.66,4a3.49,3.49,0,0,1-2,3.38,3.76,3.76,0,0,1,2.44,3.67c0,2.55-2.09,4.17-4.93,4.17h-5.06Zm4.88,2.44h-2.33v3.74h2.33a1.8,1.8,0,0,0,2-1.86A1.83,1.83,0,0,0,743.26,388.53Zm.18,6.2h-2.51v4.15h2.51a2.09,2.09,0,1,0,0-4.15Z" transform="translate(-592.58 -355.13)"/><path class="cls-1" d="M753.06,401.32V386.09h2.55v12.79h5.87v2.44Z" transform="translate(-592.58 -355.13)"/><path class="cls-1" d="M765.25,401.32V386.09h8.41v2.44H767.8v3.9h5.42v2.44H767.8v4h5.86v2.44Z" transform="translate(-592.58 -355.13)"/><circle class="cls-1" cx="18.63" cy="38.57" r="18.63"/><path class="cls-2" d="M618.52,384c-1.41-1.56-2.83-2.19-4-1.76a2.29,2.29,0,0,0-.62.38l-3.41,2.86h0l-8.92,7.5h0l-1.92,1.62a2,2,0,0,0-.59,2.22l.38,1h0l.38,1.05a2,2,0,0,0,1.89,1.32h18.6a3.77,3.77,0,0,0,.72-.13c1.18-.43,1.86-1.82,1.93-3.92a17.85,17.85,0,0,0-1.2-6.46A18.18,18.18,0,0,0,618.52,384Zm-.56,9.22-1.36-3.72a2,2,0,0,1,1.36,3.72Zm-3.58-10.14-.09.06c-1.4,1.18-1.38,5.09.14,9.25a14.86,14.86,0,0,0,4.1,6.43H601.71a.59.59,0,0,1-.56-.4l-.38-1h0l12-4.37C611.16,388.67,611.76,384.56,614.38,383.05Z" transform="translate(-592.58 -355.13)"/><path class="cls-2" d="M615,400a3.59,3.59,0,0,1-3.7,3.34h0a3.6,3.6,0,0,1-3.75-3.35h1.42a2.28,2.28,0,0,0,2.33,2h0a2.29,2.29,0,0,0,2.29-1.95" transform="translate(-592.58 -355.13)"/><path class="cls-1" d="M643.49,363.57h-2.82l-1,4.51H638.2l2.72-11.71h3.4c2.34,0,3.72,1.3,3.76,3.21C648.11,361.91,646.25,363.57,643.49,363.57Zm3.12-4c0-1.12-.87-1.85-2.4-1.85H642L641,362.24h2.85A2.53,2.53,0,0,0,646.61,359.55Z" transform="translate(-592.58 -355.13)"/><path class="cls-1" d="M649,364.25c0-3,1.88-5.2,4.58-5.2a3.77,3.77,0,0,1,4,4c0,3-1.86,5.22-4.56,5.22A3.8,3.8,0,0,1,649,364.25Zm7.13-1.17a2.51,2.51,0,0,0-2.6-2.81c-1.72,0-3.09,1.55-3.09,3.92a2.53,2.53,0,0,0,2.62,2.82C654.8,367,656.15,365.45,656.15,363.08Z" transform="translate(-592.58 -355.13)"/><path class="cls-1" d="M659.21,359.21h1.36l.67,7.09,3.75-7.09h1.41l.91,7.2,3.83-7.2h1.51l-4.9,8.87h-1.42l-1-7-3.76,7h-1.44Z" transform="translate(-592.58 -355.13)"/><path class="cls-1" d="M674.51,364v.32a2.53,2.53,0,0,0,2.63,2.71,2.7,2.7,0,0,0,2.44-1.36l1.12.74a4.33,4.33,0,0,1-3.72,1.85,3.73,3.73,0,0,1-3.9-4c0-2.77,1.68-5.2,4.71-5.2a3.23,3.23,0,0,1,3.44,3.41A5.64,5.64,0,0,1,681,364Zm.2-1.24h5.12a1.94,1.94,0,0,0,0-.34,2,2,0,0,0-2.15-2.13A3,3,0,0,0,674.71,362.74Z" transform="translate(-592.58 -355.13)"/><path class="cls-1" d="M689.64,359.19l-.42,1.35a2.25,2.25,0,0,0-.93-.18c-1.34,0-2.51.91-3,2.91l-1.12,4.81h-1.42l2.06-8.87H686l-.14,1.4a3.56,3.56,0,0,1,2.89-1.58A2.27,2.27,0,0,1,689.64,359.19Z" transform="translate(-592.58 -355.13)"/><path class="cls-1" d="M691.26,364v.32a2.52,2.52,0,0,0,2.62,2.71,2.71,2.71,0,0,0,2.45-1.36l1.12.74a4.33,4.33,0,0,1-3.73,1.85,3.74,3.74,0,0,1-3.9-4c0-2.77,1.69-5.2,4.72-5.2a3.24,3.24,0,0,1,3.44,3.41,5.3,5.3,0,0,1-.25,1.52Zm.19-1.24h5.13c0-.11,0-.23,0-.34a2,2,0,0,0-2.14-2.13A3,3,0,0,0,691.45,362.74Z" transform="translate(-592.58 -355.13)"/><path class="cls-1" d="M699.86,364.32c0-2.95,1.9-5.29,4.52-5.29a2.88,2.88,0,0,1,3,2.19l1.4-6.09h1.42l-3,12.95H706l.3-1.65a3.3,3.3,0,0,1-2.92,1.79C701.28,368.22,699.86,366.62,699.86,364.32Zm6.95-1.44a2.34,2.34,0,0,0-2.34-2.62c-1.88,0-3.21,1.77-3.21,4,0,1.74.87,2.71,2.43,2.71S706.81,365.2,706.81,362.88Z" transform="translate(-592.58 -355.13)"/><path class="cls-1" d="M725.72,363c0,3-2,5.24-4.52,5.24a2.88,2.88,0,0,1-3-2.18l-.46,2h-1.42l3-12.95h1.42l-1.28,5.5a3.43,3.43,0,0,1,2.91-1.56C724.28,359.07,725.72,360.51,725.72,363Zm-1.4,0c0-1.79-1-2.68-2.36-2.68-1.88,0-3.19,1.74-3.19,4.15a2.3,2.3,0,0,0,2.41,2.59C722.9,367,724.32,365.33,724.32,363Z" transform="translate(-592.58 -355.13)"/><path class="cls-1" d="M724.5,371.29l.57-1.19a2,2,0,0,0,1.35.55c.76,0,1.29-.41,1.86-1.31l.83-1.33-1.56-8.8H729l.82,5.07.35,2.22,1.24-2.08,3.14-5.21h1.61l-6.7,10.6c-.92,1.46-1.91,2.08-2.94,2.08A2.91,2.91,0,0,1,724.5,371.29Z" transform="translate(-592.58 -355.13)"/></svg>