<?xml version="1.0" standalone="no"?>
<!DOCTYPE svg PUBLIC "-//W3C//DTD SVG 20010904//EN"
 "http://www.w3.org/TR/2001/REC-SVG-20010904/DTD/svg10.dtd">
<svg version="1.0" xmlns="http://www.w3.org/2000/svg"
 width="512.000000pt" height="512.000000pt" viewBox="0 0 512.000000 512.000000"
 preserveAspectRatio="xMidYMid meet">
<metadata>
Created by potrace 1.14, written by Peter Selinger 2001-2017
</metadata>
<g transform="translate(0.000000,512.000000) scale(0.100000,-0.100000)"
fill="#000000" stroke="none">
<path d="M466 4898 c1 -123 2 -227 3 -233 1 -7 520 -10 1536 -9 1702 0 1588 5
1729 -65 144 -71 265 -246 301 -436 26 -139 26 -352 0 -490 -53 -278 -224
-496 -455 -577 l-65 -23 -790 0 -790 1 -3 695 -2 696 -238 -1 -237 -1 -2 -705
c-2 -388 -3 -719 -3 -736 0 -31 -3 -32 -89 -62 -430 -151 -762 -441 -944 -824
-63 -133 -122 -302 -143 -411 -2 -12 -8 -44 -13 -72 -27 -137 -36 -255 -36
-465 1 -216 18 -314 96 -550 36 -109 98 -239 154 -326 59 -90 199 -222 284
-267 l72 -39 57 53 c31 30 62 58 68 64 6 5 43 40 81 77 l70 66 -44 44 c-60 58
-157 178 -209 260 -142 221 -206 436 -199 668 16 519 319 1025 742 1239 23 11
45 21 48 21 3 0 5 -554 5 -1230 l0 -1230 1173 3 c644 1 1181 5 1192 9 11 3 41
11 66 17 311 71 610 296 789 594 81 136 176 391 196 526 2 14 5 36 8 48 4 20
7 40 22 148 3 22 7 112 9 200 9 392 -98 801 -277 1068 -47 69 -155 187 -172
187 -14 0 -309 -216 -314 -229 -1 -4 15 -37 37 -73 184 -303 277 -600 267
-853 -5 -124 -6 -133 -31 -275 -85 -482 -331 -792 -698 -880 -78 -19 -121 -20
-934 -20 l-853 0 0 1055 0 1055 48 1 c26 0 405 2 842 3 572 2 812 6 855 15
312 63 551 242 684 515 103 209 141 413 136 726 -2 107 -5 206 -8 220 -2 14
-8 48 -12 75 -11 78 -51 233 -80 310 -107 287 -305 497 -547 582 -184 65 -82
62 -1813 63 l-1570 0 1 -222z"/>
</g>
</svg>
