<svg height="18" viewBox="0 0 145 18" width="145" xmlns="http://www.w3.org/2000/svg"><g fill="none" transform="translate(-1)"><path d="m11.493 3.654c-.412-.229-1.592-.087-3.01.352-2.481 1.696-4.576 4.195-4.722 8.208-.026.096-.271-.014-.32-.043-.67-1.284-.936-2.636-.376-4.587.104-.174-.237-.388-.298-.327-.122.122-.634.668-.975 1.257-1.686 2.923-.583 6.67 2.366 8.31 1.41611541.7883936 3.08742426.9819285 4.64623749.5380268 1.55881321-.4439017 2.87743311-1.4888756 3.66576251-2.9050268 1.9-3.402.136-10.181-.977-10.803z" fill="#81b441"/><path d="m22.046 5.288c-3.496 0-6.033 2.599-6.033 6.179 0 3.609 2.531 6.131 6.155 6.131 1.83 0 3.279-.572 4.432-1.75.344-.372.381-.73.381-.867 0-.584-.434-1.008-1.032-1.008-.302 0-.554.113-.843.381-.652.608-1.512 1.23-2.938 1.23-1.984 0-3.597-1.49-3.699-3.402h7.895c.858 0 1.275-.402 1.275-1.227 0-.243 0-.418-.049-.764-.425-3.071-2.497-4.903-5.544-4.903zm0 1.916c1.896 0 3.112 1.208 3.187 3.158h-6.761c.177-1.804 1.703-3.158 3.574-3.158zm13.133-1.916c-1.588 0-3.16.913-3.774 2.181v-.784c0-1.214-.941-1.275-1.129-1.275-.558 0-1.153.335-1.153 1.275v9.466c0 1.262 1.001 1.324 1.203 1.324.2 0 1.202-.062 1.202-1.324v-5.074c0-2.208 1.251-3.75 3.042-3.75 1.735 0 2.579 1.138 2.579 3.481v5.343c0 1.262 1.002 1.324 1.203 1.324.2 0 1.203-.062 1.203-1.324v-6.099c-.002-2.303-1.152-4.764-4.376-4.764zm15.255.122c-.556 0-.959.324-1.199.962l-3.291 8.275-3.265-8.275c-.256-.647-.655-.962-1.223-.962-.664 0-1.203.517-1.203 1.153 0 .157.018.361.15.681l3.782 8.928c.45 1.077 1.191 1.303 1.734 1.303.542 0 1.284-.226 1.736-1.302l3.806-8.979c.13-.315.15-.546.15-.656.001-.643-.507-1.128-1.177-1.128zm6.993-.122c-1.538 0-2.971.428-4.033 1.206-.36.249-.536.559-.536.949 0 .537.41.958.934.958.227 0 .481-.09.714-.253.913-.609 1.772-.893 2.701-.893 1.778 0 2.799.904 2.799 2.481v.261c-3.992.005-8.051.486-8.051 3.959 0 2.499 2.136 3.618 4.252 3.618 1.686 0 3.032-.668 3.896-1.933v.608c0 .905.608 1.227 1.13 1.227.11 0 1.08-.035 1.08-1.227v-6.368c0-2.876-1.827-4.593-4.886-4.593zm2.073 6.479h.506v.554c0 2.027-1.291 3.336-3.287 3.336-.542 0-2.311-.127-2.311-1.75.001-1.919 2.906-2.14 5.092-2.14zm9.076-4.172c1.052 0 1.105-.819 1.105-.983 0-.487-.291-1.007-1.105-1.007h-2.164v-2.189c0-.978-.635-1.324-1.178-1.324-.201 0-1.203.063-1.203 1.324v10.393c0 2.398 1.183 3.666 3.422 3.666.579 0 1.144-.102 1.513-.273.423-.211.666-.559.666-.953 0-.555-.403-.959-.959-.959-.107 0-.26.027-.429.075-.1621583.0454497-.3296011.0693221-.498.071-.911 0-1.335-.594-1.335-1.871v-5.97zm7.952-2.307c-3.637 0-6.276 2.578-6.276 6.13 0 1.729.64 3.305 1.8 4.438 1.151 1.123 2.741 1.742 4.477 1.742 3.592 0 6.301-2.657 6.301-6.18 0-3.552-2.651-6.13-6.302-6.13zm0 10.271c-2.494 0-3.799-2.083-3.799-4.141 0-2.828 1.97-4.115 3.799-4.115 1.83 0 3.799 1.287 3.799 4.115 0 2.845-1.969 4.141-3.799 4.141z" fill="#121112"/><path d="m101.727 6.141c-.3552-.38576326-.800978-.67687655-1.297-.847-.93-.323-2.199-.35-3.209-.029-.4590931.14367885-.8952015.35247203-1.295.62-.4997578.33606778-.9291179.76644689-1.264 1.267-.247-.611-.611-1.087-1.089-1.418-.667-.463-1.526-.697-2.553-.697-.524 0-1.022.084-1.478.249-.8833467.31581642-1.6510448.89045739-2.203 1.649v-1.327c0-.19882251-.1611775-.36-.36-.36h-.58c-.1988225 0-.36.16117749-.36.36v11.418c0 .198.161.36.36.36h.58c.1988225 0 .36-.1611775.36-.36v-7.183c.066-.338.188-.715.361-1.123.175-.412.416-.805.716-1.167.293-.354.66-.654 1.089-.891.416-.229.914-.345 1.483-.345.416 0 .805.049 1.155.145.327.09.603.243.839.467.234.223.422.534.557.924.141.406.213.937.213 1.575v7.599c0 .198.16.359.359.359h.57c.1984326.0000008.3594488-.1605681.36-.359l-.001-7.574c.012-.171.055-.371.13-.589.0824378-.23905757.1900418-.46867971.321-.685.139-.233.312-.465.513-.688.194-.217.429-.416.696-.587s.574-.312.91-.419c.3656103-.10989115.7452328-.166144 1.127-.167h.074c.383 0 .744.048 1.07.144.327.096.602.258.838.495.236.236.426.569.562.99.143.44.215 1.01.215 1.693v7.388c.000551.1984319.161567.3590008.36.359h.57c.198042-.0005494.358451-.1609578.359-.359v-7.389c0-.792-.089-1.481-.264-2.048-.178-.583-.447-1.071-.794-1.45zm11.553 10.295c-.035122-.1708127-.063477-.3429471-.085-.516-.050365-.3960217-.076081-.7947896-.077-1.194v-5.72c0-.646-.112-1.225-.332-1.724-.210927-.48694073-.532023-.91826355-.938-1.26-.415064-.33912077-.893798-.59174792-1.408-.743-1.078-.328-2.466-.329-3.547.047-.52534.17596608-1.015764.44266979-1.449.788-.414.337-.74.734-.969 1.182-.230729.44353646-.351454.93603964-.352 1.436-.000108.19422896.153879.35352573.348.36l.569.021c.097647.00296333.192366-.03355646.262749-.10130497s.110489-.16100639.111251-.25869503c0-.335.076-.64.234-.93.162-.295.389-.555.674-.773.31572-.23506165.669556-.41400893 1.046-.529.433064-.13292177.884017-.19835538 1.337-.194 1.023 0 1.812.236 2.342.702.525.46.78 1.1.78 1.956v1.307h-2.372c-.85 0-1.625.091-2.309.27-.69.183-1.286.44-1.771.767-.5.337-.887.75-1.152 1.227-.268866.4825731-.408059 1.0265968-.404 1.579 0 .504.094.976.277 1.398.186.426.453.799.797 1.106.342.306.755.544 1.23.71.469.164.997.247 1.57.247.553828.0058117 1.106081-.0600687 1.643-.196.468027-.1217226.918896-.3018012 1.342-.536.385139-.2163238.740461-.4818909 1.057-.79l.131-.135.012.15c.033.398.093.746.177 1.035.044863.1544113.186204.2607224.347.261h.653c.198823 0 .36-.1611775.36-.36v-.094c0-.05-.01-.1-.03-.145-.046134-.1130326-.081296-.2302383-.105-.35zm-5.587-.118c-.364057.0044721-.726118-.0544051-1.07-.174-.298203-.1038309-.573814-.2636988-.812-.471-.218293-.1888505-.395311-.4206752-.52-.681-.121325-.2544746-.183543-.5330875-.182-.815 0-.366.09-.693.275-1.002.208632-.3314495.490531-.6106114.824-.816.373-.237.838-.426 1.381-.561.62182-.144185 1.258733-.2130132 1.897-.205h2.341v2.272c-.17.362-.381.691-.626.979-.542033.636227-1.268052 1.088679-2.078 1.295-.466574.1230552-.947491.1832539-1.43.179zm12.623-11.141c-.132648-.04892651-.270069-.08378442-.41-.104-.172441-.02585753-.346636-.03822837-.521-.037-1.011 0-1.868.259-2.548.769-.307.229-.58.499-.816.804v-1.001c0-.09565145-.038065-.18737073-.105795-.25491265-.067729-.06754191-.159554-.10535305-.255205-.10508735h-.569c-.198595.00054937-.359451.16140549-.36.36v11.417c0 .199.162.361.36.361h.569c.199375 0 .361-.1616252.361-.361v-7.449c.080451-.45061183.216141-.8895885.404-1.307.172162-.38161721.407841-.73124819.697-1.034.275-.285.605-.512.981-.675.406175-.16806581.842484-.25110751 1.282-.244.119 0 .234.006.344.019l.35.042c.197531.02417506.377537-.11563046.403-.313l.064-.506c.019305-.1646151-.075343-.32140125-.23-.381zm4.783 5.325 4.991-4.63c.16103-.00014775.302376-.10721607.346127-.2621884.043752-.15497233-.020734-.32015075-.157912-.40448814s-.313679-.06731819-.432215.04167654h-.812c-.09093-.00046388-.178591.03388483-.245.096l-5.195 4.804-.732.692v-10.022c0-.19882251-.161177-.36-.36-.36h-.57c-.198432.0005512-.359001.16156736-.359.36v16.209c0 .198.161.36.359.36h.57c.198823 0 .36-.1611775.36-.36v-4.562l1.28-1.101 5.019 5.896c.069.08.169.127.274.127h.748c.153945-.0006703.290527-.0988918.340155-.244619.049629-.1457272.001383-.3068932-.120155-.401381zm13.262-3.995c-.414688-.46458535-.924127-.83490108-1.494-1.086-1.178-.523-2.688-.521-3.912.073-.626651.30490957-1.183607.73590417-1.636 1.266-.47836.56684636-.849421 1.21611853-1.095 1.916-.272829.7766592-.408518 1.5948482-.401 2.418v.464c0 .87.14 1.682.414 2.412.256697.7020003.643452 1.349307 1.14 1.908.477484.5312639 1.057431.9605268 1.705 1.262.65.303 1.357.456 2.104.456.483 0 .935-.05 1.34-.147.388753-.0912295.765122-.2288847 1.121-.41.332066-.1702364.640085-.383765.916-.635.266-.242.504-.514.708-.809.112505-.1623136.073241-.3849623-.088-.499l-.401-.284c-.156819-.1130439-.37506-.081171-.493.072-.22.285-.45.52-.685.701-.233.18-.48.326-.732.434-.256148.1082078-.524422.1850974-.799.229-.82.133-1.729.076-2.479-.294-.495093-.2441307-.935614-.5860026-1.295-1.005-.379561-.4467097-.674088-.9591659-.869-1.512-.213142-.6030163-.32006-1.2384365-.316-1.878v-.263h8.198c.095478 0 .187045-.0379285.254558-.1054416.067514-.0675131.105442-.1590805.105442-.2545584v-.665c0-.763-.115-1.471-.344-2.106-.212143-.60997189-.540535-1.17302771-.967-1.658zm-1.994.125c.4107.20202104.775038.4870225 1.07.837.297.355.531.776.695 1.249.142.409.223.841.244 1.289h-7.18c.074-.434.193-.845.357-1.229.211-.494.488-.931.825-1.296.327118-.35681634.720835-.6462439 1.159-.852.857-.399 1.996-.406 2.83.002zm9.221 9.878c-.036905-.1895546-.214394-.3180808-.406-.294-.177843.0260873-.356216.0484256-.535.067-.311.033-.75.051-1.103-.051-.148803-.0443188-.281965-.1299729-.384-.247-.119-.13-.219-.325-.294-.581-.081-.273-.122-.648-.122-1.111v-7.744h2.235c.198823 0 .36-.16117749.36-.36v-.58c0-.09547794-.037928-.18704534-.105442-.25455844-.067513-.0675131-.15908-.10544156-.254558-.10544156h-2.235v-2.722c0-.09565145-.038065-.18737073-.105795-.25491265-.067729-.06754191-.159554-.10535305-.255205-.10508735h-.58c-.095386-.00000037-.186851.03795998-.254206.10550197-.067354.067542-.10506.15911217-.104794.25449803v2.721h-1.751c-.198823 0-.36.16117749-.36.36v.58c0 .199.161.36.36.36h1.751v7.744c0 .601.057 1.111.171 1.521.12.432.301.784.537 1.051.243.272.544.468.894.578.353358.1066002.72094.1585339 1.09.154l.278-.006c.116518-.0045396.232894-.0122091.349-.023l.34-.037c.131-.018.248-.046.35-.082.164526-.0599808.262023-.2296517.231-.402z" fill="#81b441"/></g></svg>